<?xml version="1.0" standalone="no"?><!DOCTYPE svg PUBLIC "-//W3C//DTD SVG 1.1//EN" "http://www.w3.org/Graphics/SVG/1.1/DTD/svg11.dtd"><svg t="1597841998439" class="icon" viewBox="0 0 1024 1024" version="1.1" xmlns="http://www.w3.org/2000/svg" p-id="6026" xmlns:xlink="http://www.w3.org/1999/xlink" width="128" height="128"><defs><style type="text/css"></style></defs><path d="M512 58.91160494c61.23166025 0 120.52151309 11.9097521 176.31611259 35.59980247 53.98224592 22.78387358 102.39797728 55.53569185 144.08210963 97.09037037 41.68413235 41.68413235 74.3064968 90.0998637 97.09037037 144.08210963 23.56059653 55.7945995 35.59980247 115.21390617 35.59980247 176.31611259 0 61.23166025-11.9097521 120.52151309-35.59980247 176.31611259-22.78387358 53.98224592-55.53569185 102.39797728-97.09037037 144.08210963-41.68413235 41.68413235-90.0998637 74.3064968-144.08210963 97.09037037-55.7945995 23.56059653-115.21390617 35.59980247-176.31611259 35.59980247s-120.52151309-11.9097521-176.31611259-35.59980247c-53.98224592-22.78387358-102.39797728-55.53569185-144.08210963-97.09037037-41.68413235-41.68413235-74.3064968-90.0998637-97.09037037-144.08210963-23.56059653-55.7945995-35.59980247-115.21390617-35.59980247-176.31611259 0-61.23166025 11.9097521-120.52151309 35.59980247-176.31611259 22.78387358-53.98224592 55.53569185-102.39797728 97.09037037-144.08210963 41.68413235-41.68413235 90.0998637-74.3064968 144.08210963-97.09037037C391.47848691 70.82135703 450.76833975 58.91160494 512 58.91160494m0-44.01430124c-274.57156741 0-497.1026963 222.53112889-497.1026963 497.1026963s222.53112889 497.1026963 497.1026963 497.1026963 497.1026963-222.53112889 497.1026963-497.1026963-222.53112889-497.1026963-497.1026963-497.1026963z" p-id="6027" fill="#ffffff"></path><path d="M347.85254717 262.28356741c5.17815309-4.01306864 11.9097521-5.56651457 18.38244344-4.14252247s12.03920592 5.43706075 15.14609778 11.26248296L429.14955061 356.65540741l-67.31599011 51.65207704c-15.66391309 11.9097521-21.35988148 32.75181827-14.11046717 51.13426172 18.51189728 46.99173925 44.27320889 92.17112494 76.63666569 134.24361877 32.3634568 42.33140148 69.51670518 78.96683457 110.1652069 109.1295763 15.79336691 11.65084445 37.41215605 11.52139061 52.94661532-0.38836149l67.31599012-51.65207703 71.58796642 68.61052839c4.78979161 4.53088395 7.24941431 11.00357531 6.86105283 17.6057205-0.38836148 6.60214518-3.62470717 12.68647506-8.80286024 16.6995437-21.10097383 16.18172839-47.38010075 24.3373195-78.31956543 24.33731951-39.87177876 0-84.53334914-13.59265185-129.06546569-39.48341729-47.76846222-27.70311902-92.55948642-67.96325925-129.84218864-116.50844444-26.66748839-34.69362569-47.89791605-71.71742025-63.4323753-110.03575309-14.62828247-36.24707161-23.30168889-71.9763279-25.89076544-106.15213827-4.66033778-64.3385521 12.94538272-115.34336 49.9691773-143.56429432z m-26.79694223-34.95253333c-101.4918005 77.80175013-87.51078717 266.54543013 31.32782617 421.50166123 84.14498765 109.77684543 198.3232632 173.20922075 293.73073383 173.20922074 39.35396347 0 75.47158124-10.74466765 105.11650765-33.39908741 6.99050667-5.30760691 14.62828247-13.8515595 21.8776968-22.9133274 16.05227457-20.0653432 13.98101333-48.93354667-4.53088396-66.66872099l-98.12600098-93.98347852c-7.24941431-6.99050667-18.51189728-7.50832197-26.40858075-1.4239921l-70.42288197 53.98224592c-7.76722963 5.95487605-18.64135111 5.82542222-26.27912691-0.25890765-31.32782617-24.98458864-61.23166025-55.27678419-88.1580563-90.35877137-26.79694222-34.95253333-48.1568237-71.45851259-64.20909827-108.2233995-3.88361482-8.93231408-1.16508445-19.5475279 6.60214518-25.50240394l70.55233581-54.11169976c7.89668347-6.08432987 10.22685235-17.08790518 5.43706073-25.89076543l-73.78868147-134.76143407c-7.89668347-14.49882864-25.37295013-20.97152-40.77795556-15.27555161-11.9097521 4.40143013-26.40858075 11.78029827-41.94304 24.07841186z" p-id="6028" fill="#ffffff"></path></svg>